<svg xmlns="http://www.w3.org/2000/svg" viewBox="0 0 72 72"><g><path d="M49,61H23a5.0147,5.0147,0,0,1-5-5V16a5.0147,5.0147,0,0,1,5-5H40.9091L54,22.1111V56A5.0147,5.0147,0,0,1,49,61Z" style="fill:#e3edfc"/><path d="M54,22.1111H44.1818a3.3034,3.3034,0,0,1-3.2727-3.3333V11s1.8409.2083,6.9545,4.5833C52.8409,20.0972,54,22.1111,54,22.1111Z" style="fill:#b7d0ea"/><path d="M19.03,59A4.9835,4.9835,0,0,0,23,61H49a4.9835,4.9835,0,0,0,3.97-2Z" style="fill:#c4dbf2"/><rect x="27" y="31" width="18" height="2" rx="1" ry="1" style="fill:#599def"/><rect x="27" y="36" width="18" height="2" rx="1" ry="1" style="fill:#599def"/><rect x="27" y="41" width="18" height="2" rx="1" ry="1" style="fill:#599def"/><rect x="27" y="46" width="12" height="2" rx="1" ry="1" style="fill:#599def"/></g></svg>