<svg xmlns="http://www.w3.org/2000/svg" viewBox="0 0 72 72"><g><path d="M49,61H23a5.0147,5.0147,0,0,1-5-5V16a5.0147,5.0147,0,0,1,5-5H40.9091L54,22.1111V56A5.0147,5.0147,0,0,1,49,61Z" style="fill:#e3edfc"/><path d="M54,22.1111H44.1818a3.3034,3.3034,0,0,1-3.2727-3.3333V11s1.8409.2083,6.9545,4.5833C52.8409,20.0972,54,22.1111,54,22.1111Z" style="fill:#b7d0ea"/><path d="M19.03,59A4.9835,4.9835,0,0,0,23,61H49a4.9835,4.9835,0,0,0,3.97-2Z" style="fill:#c4dbf2"/><path d="M45.6465,30.7373a1.006,1.006,0,0,0-.811-.2236l-12,2A1,1,0,0,0,32,33.5v9.5564a3.9227,3.9227,0,0,0-3.7113-.1713,3.8628,3.8628,0,0,0-2.082,2.3135,4.0254,4.0254,0,0,0,5.3695,4.9977A3.9768,3.9768,0,0,0,34,46.4508V34.3467l10-1.666v8.3757a3.9227,3.9227,0,0,0-3.7113-.1713,3.8628,3.8628,0,0,0-2.082,2.3135,4.0254,4.0254,0,0,0,5.3695,4.9977A3.9768,3.9768,0,0,0,46,44.4508V31.5A.999.999,0,0,0,45.6465,30.7373Z" style="fill:#5a5aff"/></g></svg>