<svg xmlns="http://www.w3.org/2000/svg" x="0px" y="0px" viewBox="0 0 72 72">
<g>
	<g>
		
			<path fill="#FFFFFF" stroke="#4D617B" stroke-width="2" stroke-linecap="round" stroke-linejoin="round" stroke-miterlimit="10" d="
			M49.8,60H22.2c-2.3,0-4.2-2-4.2-4.4V16.4c0-2.4,1.9-4.4,4.2-4.4h20.5L54,23.4v32.2C54,58,52.1,60,49.8,60z"/>
		
			<polyline fill="none" stroke="#4D617B" stroke-width="2" stroke-linecap="round" stroke-linejoin="round" stroke-miterlimit="10" points="
			42.9,12.8 42.9,23.8 53.3,23.8 		"/>
	</g>
	<g>
		<path fill="#4D617B" d="M29.9,18.3c-0.2-0.5-0.3-1-0.5-1.4l-1.7,0.9c0.1,0.4,0.3,0.9,0.4,1.3L29.9,18.3z"/>
		<path fill="#4D617B" d="M29,15.5c-0.2-0.5-0.4-0.9-0.6-1.4l-1.6,1c0.2,0.4,0.3,0.8,0.5,1.3L29,15.5z"/>
		<path fill="#4D617B" d="M30.3,28.8c0.1,0.5,0.1,0.9,0.2,1.4l1.8-0.3c-0.1-0.5-0.1-1-0.2-1.5L30.3,28.8z"/>
		<path fill="#4D617B" d="M32.7,35.9c0-0.5,0-1,0-1.5l-1.8,0.1c0,0.5,0,0.9,0,1.4H32.7z"/>
		<path fill="#4D617B" d="M30.6,31.6c0,0.5,0.1,0.9,0.1,1.4l1.8-0.2c0-0.5-0.1-1-0.1-1.5L30.6,31.6z"/>
		<path fill="#4D617B" d="M30.8,21.2c-0.1-0.5-0.3-1-0.4-1.4l-1.7,0.7c0.1,0.4,0.2,0.9,0.4,1.4L30.8,21.2z"/>
		<path fill="#4D617B" d="M25.6,12.8c0,0,0.2,0.4,0.6,1.1l1.6-1.1c-0.4-0.9-0.4-0.7-0.4-0.7L25.6,12.8z"/>
		<path fill="#4D617B" d="M29.9,26c0.1,0.5,0.2,0.9,0.2,1.4l1.8-0.4c-0.1-0.5-0.2-1-0.2-1.5L29.9,26z"/>
		<path fill="#4D617B" d="M31.4,24c-0.1-0.5-0.2-1-0.3-1.4l-1.8,0.6c0.1,0.4,0.2,0.9,0.3,1.4L31.4,24z"/>
		<path fill="#4D617B" d="M40.5,12.8L38.7,12c0,0,0,0-0.4,0.9l1.6,1.1C40.2,13.2,40.5,12.8,40.5,12.8z"/>
		<path fill="#4D617B" d="M33.4,35.9l1.8,0.1c0-0.5,0-1,0-1.4l-1.8-0.1C33.4,34.9,33.4,35.4,33.4,35.9z"/>
		<path fill="#4D617B" d="M33.5,32.9l1.8,0.2c0-0.5,0.1-1,0.1-1.4l-1.8-0.2C33.6,31.9,33.5,32.4,33.5,32.9z"/>
		<path fill="#4D617B" d="M39.3,15.2l-1.6-1c-0.2,0.4-0.4,0.9-0.6,1.4l1.7,0.9C38.9,16,39.1,15.6,39.3,15.2z"/>
		<path fill="#4D617B" d="M35.7,28.8l-1.8-0.3c-0.1,0.5-0.1,1-0.2,1.5l1.8,0.3C35.6,29.7,35.7,29.2,35.7,28.8z"/>
		<path fill="#4D617B" d="M38.3,17.8l-1.7-0.9c-0.2,0.4-0.3,0.9-0.5,1.4l1.7,0.8C38,18.6,38.1,18.2,38.3,17.8z"/>
		<path fill="#4D617B" d="M34.4,25.5c-0.1,0.5-0.2,1-0.2,1.5l1.8,0.4c0.1-0.5,0.1-0.9,0.2-1.4L34.4,25.5z"/>
		<g>
			<path fill="#4D617B" d="M31.4,42.7c-0.2,0-0.4,0.2-0.4,0.5v7.9c0,0.3,0.2,0.5,0.4,0.5h2.4c0.2,0,0.4-0.2,0.4-0.5v-7.9
				c0-0.3-0.2-0.5-0.4-0.5h-0.1v1.8c0,0.7-0.5,1.3-1.1,1.3s-1.1-0.6-1.1-1.3v-1.8H31.4z M32.1,48.9c0-0.5,0.3-0.8,0.6-0.8h0.4
				c0.3,0,0.6,0.4,0.6,0.8v0.7c0,0.5-0.3,0.8-0.6,0.8h-0.4c-0.3,0-0.6-0.4-0.6-0.8V48.9z"/>
			<path fill="#4D617B" d="M32.6,45.1c0.4,0,0.8-0.4,0.8-0.9v-3c0-0.5-0.4-0.9-0.8-0.9c-0.4,0-0.8,0.4-0.8,0.9v3
				C31.8,44.7,32.2,45.1,32.6,45.1z"/>
			<path fill="#4D617B" d="M33,37.1h1.8v0.3c0,0.3,0,0.7,0,1.1c0.6,0.8,0.9,1.9,0.9,3.1c0,1.3-0.4,2.5-1,3.3v-2.4
				c0-0.5-0.3-0.8-0.7-0.8h-0.3v-0.9c0-0.7-0.5-1.3-1.1-1.3s-1.1,0.6-1.1,1.3v0.9h-0.3c-0.4,0-0.7,0.4-0.7,0.8v2.4
				c-0.6-0.8-1-2-1-3.3s0.4-2.5,1.1-3.3c0-0.3,0-0.6,0-0.9v-0.3h1.8L33,37.1z"/>
		</g>
		<path fill="#4D617B" d="M37.4,20.4l-1.7-0.7c-0.1,0.5-0.3,0.9-0.4,1.4l1.7,0.6C37.2,21.3,37.3,20.9,37.4,20.4z"/>
		<path fill="#4D617B" d="M36.7,23.2L35,22.6c-0.1,0.5-0.2,1-0.3,1.4l1.8,0.5C36.5,24.1,36.6,23.6,36.7,23.2z"/>
	</g>
</g>
</svg>
