<svg xmlns="http://www.w3.org/2000/svg" viewBox="0 0 72 72"><g><rect x="18" y="16" width="36" height="40" rx="5" ry="5" style="fill:#e3edfc"/><path d="M19.03,54A4.9835,4.9835,0,0,0,23,56H49a4.9835,4.9835,0,0,0,3.97-2Z" style="fill:#c4dbf2"/><rect x="32" y="20" width="8" height="2" rx="1" ry="1" style="fill:#7e95c4"/><rect x="32" y="25" width="8" height="2" rx="1" ry="1" style="fill:#7e95c4"/><rect x="32" y="30" width="8" height="2" rx="1" ry="1" style="fill:#7e95c4"/><rect x="32" y="35" width="8" height="2" rx="1" ry="1" style="fill:#7e95c4"/><path d="M35,16.0594h2a0,0,0,0,1,0,0V41a1,1,0,0,1-1,1h0a1,1,0,0,1-1-1V16.0594A0,0,0,0,1,35,16.0594Z" style="fill:#7e95c4"/><path d="M38.0024,40H33.9976A1.9976,1.9976,0,0,0,32,41.9976v2.0047A1.9976,1.9976,0,0,0,33.9976,46h4.0047A1.9976,1.9976,0,0,0,40,44.0024V41.9976A1.9976,1.9976,0,0,0,38.0024,40Zm-.0053,4H34V42h4Z" style="fill:#7e95c4"/></g></svg>