<svg xmlns="http://www.w3.org/2000/svg" viewBox="0 0 72 72"><path d="M49,61H23a5.0147,5.0147,0,0,1-5-5V16a5.0147,5.0147,0,0,1,5-5H40.9091L54,22.1111V56A5.0147,5.0147,0,0,1,49,61Z" style="fill:#e3edfc"/><path d="M54,22.1111H44.1818a3.3034,3.3034,0,0,1-3.2727-3.3333V11s1.8409.2083,6.9545,4.5833C52.8409,20.0972,54,22.1111,54,22.1111Z" style="fill:#b7d0ea"/><path d="M19.03,59A4.9835,4.9835,0,0,0,23,61H49a4.9835,4.9835,0,0,0,3.97-2Z" style="fill:#c4dbf2"/><path d="M42,31H30a3.0033,3.0033,0,0,0-3,3V45a3.0033,3.0033,0,0,0,3,3H42a3.0033,3.0033,0,0,0,3-3V34A3.0033,3.0033,0,0,0,42,31ZM29,38h6v3H29Zm8,0h6v3H37Zm6-4v2H37V33h5A1.001,1.001,0,0,1,43,34ZM30,33h5v3H29V34A1.001,1.001,0,0,1,30,33ZM29,45V43h6v3H30A1.001,1.001,0,0,1,29,45Zm13,1H37V43h6v2A1.001,1.001,0,0,1,42,46Z" style="fill:#36c684"/></svg>