<svg xmlns="http://www.w3.org/2000/svg" viewBox="0 0 72 72"><path d="M49,61H23a5.0147,5.0147,0,0,1-5-5V16a5.0147,5.0147,0,0,1,5-5H40.9091L54,22.1111V56A5.0147,5.0147,0,0,1,49,61Z" style="fill:#e3edfc"/><path d="M54,22.1111H44.1818a3.3034,3.3034,0,0,1-3.2727-3.3333V11s1.8409.2083,6.9545,4.5833C52.8409,20.0972,54,22.1111,54,22.1111Z" style="fill:#b7d0ea"/><path d="M19.03,59A4.9835,4.9835,0,0,0,23,61H49a4.9835,4.9835,0,0,0,3.97-2Z" style="fill:#c4dbf2"/><path d="M46,46.5v-13A3.5042,3.5042,0,0,0,42.5,30h-13A3.5042,3.5042,0,0,0,26,33.5v13A3.5042,3.5042,0,0,0,29.5,50h13A3.5042,3.5042,0,0,0,46,46.5ZM40,45v3H37V45Zm-3-2V37h7v6Zm0-8V32h3v3Zm-2-3v3H32V32Zm0,5v6H28V37Zm0,8v3H32V45Zm7.5,3H42V45h2v1.5A1.5016,1.5016,0,0,1,42.5,48ZM44,33.5V35H42V32h.5A1.5016,1.5016,0,0,1,44,33.5ZM29.5,32H30v3H28V33.5A1.5016,1.5016,0,0,1,29.5,32ZM28,46.5V45h2v3h-.5A1.5016,1.5016,0,0,1,28,46.5Z" style="fill:#f74141"/></svg>