<svg xmlns="http://www.w3.org/2000/svg" viewBox="0 0 72 72"><path d="M49,61H23a5.0147,5.0147,0,0,1-5-5V16a5.0147,5.0147,0,0,1,5-5H40.9091L54,22.1111V56A5.0147,5.0147,0,0,1,49,61Z" style="fill:#e3edfc"/><path d="M54,22.1111H44.1818a3.3034,3.3034,0,0,1-3.2727-3.3333V11s1.8409.2083,6.9545,4.5833C52.8409,20.0972,54,22.1111,54,22.1111Z" style="fill:#b7d0ea"/><path d="M19.03,59A4.9835,4.9835,0,0,0,23,61H49a4.9835,4.9835,0,0,0,3.97-2Z" style="fill:#c4dbf2"/><path d="M44.1405,46H27.8595A1.86,1.86,0,0,1,26,44.1405V34.8595A1.86,1.86,0,0,1,27.8595,33H44.14A1.86,1.86,0,0,1,46,34.86v9.2808A1.86,1.86,0,0,1,44.1405,46ZM29.1454,44H42.8546A1.1454,1.1454,0,0,0,44,42.8546V36.1454A1.1454,1.1454,0,0,0,42.8546,35H29.1454A1.1454,1.1454,0,0,0,28,36.1454v6.7093A1.1454,1.1454,0,0,0,29.1454,44Z" style="fill:#f25168"/><path d="M36.4218,34.268a.7112.7112,0,0,1-.5048-.2093l-2.1431-2.1428a.7143.7143,0,0,1,1.01-1.01l2.1428,2.1431a.7142.7142,0,0,1-.5051,1.2192Z" style="fill:#f25168"/><path d="M36.4218,34.268a.7142.7142,0,0,1-.5048-1.2192L38.06,30.9057a.7141.7141,0,0,1,1.01,1.01l-2.1426,2.1428A.7113.7113,0,0,1,36.4218,34.268Z" style="fill:#f25168"/><path d="M32.1356,49.268a.7054.7054,0,0,1-.3665-.102.7145.7145,0,0,1-.2451-.98l2.1431-3.5713a.7142.7142,0,0,1,1.2247.735l-2.1426,3.5711A.7144.7144,0,0,1,32.1356,49.268Z" style="fill:#f25168"/><path d="M40.7083,49.268a.7138.7138,0,0,1-.6129-.3463L37.9526,45.35a.7143.7143,0,0,1,1.225-.735L41.32,48.1866a.7137.7137,0,0,1-.6121,1.0814Z" style="fill:#f25168"/><path d="M35.12,37H30.9a.5007.5007,0,1,1,0-1h4.22a.5007.5007,0,1,1,0,1Z" style="fill:#f25168"/><path d="M41.9758,43H37.5471a.5056.5056,0,1,1,0-1.0065h4.4286a.5056.5056,0,1,1,0,1.0065Z" style="fill:#f25168"/><path d="M38.14,40H33.9775a.5.5,0,1,1,0-1H38.14a.5.5,0,1,1,0,1Z" style="fill:#f25168"/></svg>