<svg xmlns="http://www.w3.org/2000/svg" viewBox="0 0 72 72"><path d="M50,61H22a6,6,0,0,1-6-6V22l9-11H50a6,6,0,0,1,6,6V55A6,6,0,0,1,50,61Z" style="fill:#5a5aff"/><path d="M25,20.556A1.444,1.444,0,0,1,23.556,22H16l9-11h0Z" style="fill:#b8b8ff"/><path d="M44.6465,30.2373a1.006,1.006,0,0,0-.811-.2236l-12,2A1,1,0,0,0,31,33v9.5563A3.9543,3.9543,0,0,0,29,42a4,4,0,1,0,4,4V33.8467l10-1.666v8.3757A3.9543,3.9543,0,0,0,41,40a4,4,0,1,0,4,4V31A.999.999,0,0,0,44.6465,30.2373ZM29,48a2,2,0,1,1,2-2A2.0023,2.0023,0,0,1,29,48Zm12-2a2,2,0,1,1,2-2A2.0023,2.0023,0,0,1,41,46Z" style="fill:#f3f3f3"/></svg>